<?xml version="1.0" encoding="UTF-8" standalone="no"?>
<svg width="39px" height="40px" viewBox="0 0 39 40" version="1.1" xmlns="http://www.w3.org/2000/svg" xmlns:xlink="http://www.w3.org/1999/xlink" xmlns:sketch="http://www.bohemiancoding.com/sketch/ns">
    <!-- Generator: Sketch 3.3.1 (12005) - http://www.bohemiancoding.com/sketch -->
    <title>Oval 1 Copy</title>
    <desc>Created with Sketch.</desc>
    <defs></defs>
    <g id="Layout" stroke="none" stroke-width="1" fill="none" fill-rule="evenodd" sketch:type="MSPage">
        <g id="Desktop---home" sketch:type="MSArtboardGroup" transform="translate(-845.000000, -22.000000)" fill="#01614B">
            <g id="Oval-1-Copy-+-male-Copy" sketch:type="MSLayerGroup" transform="translate(845.000000, 22.000000)">
                <path d="M19.5,39.5744681 C30.2695526,39.5744681 39,30.8106802 39,20 C39,9.18931979 30.2695526,0.425531915 19.5,0.425531915 C8.73044738,0.425531915 0,9.18931979 0,20 C0,30.8106802 8.73044738,39.5744681 19.5,39.5744681 Z M13.2858538,27.0281808 L10.0219029,31.827567 L30.0106019,31.8275671 L26.8060826,27.0281808 L13.2858538,27.0281808 Z M20,24 C22.7614237,24 25,21.3137085 25,18 C25,14.6862915 22.7614237,12 20,12 C17.2385763,12 15,14.6862915 15,18 C15,21.3137085 17.2385763,24 20,24 Z" id="Oval-1-Copy" sketch:type="MSShapeGroup"></path>
            </g>
        </g>
    </g>
</svg>